<?xml version="1.0" standalone="no"?>
<!DOCTYPE svg PUBLIC "-//W3C//DTD SVG 20010904//EN"
 "http://www.w3.org/TR/2001/REC-SVG-20010904/DTD/svg10.dtd">
<svg version="1.0" xmlns="http://www.w3.org/2000/svg"
 width="240.000000pt" height="135.000000pt" viewBox="0 0 240.000000 135.000000"
 preserveAspectRatio="xMidYMid meet">

<g transform="translate(0.000000,135.000000) scale(0.100000,-0.100000)"
fill="#000000" stroke="none">
<path d="M0 675 l0 -675 1200 0 1200 0 0 675 0 675 -1200 0 -1200 0 0 -675z
m1960 85 l0 -440 -795 0 -795 0 0 440 0 440 795 0 795 0 0 -440z"/>
<path d="M400 1162 c0 -5 8 -9 18 -8 11 1 16 -5 14 -18 -2 -11 1 -15 8 -11 6
4 19 0 28 -8 9 -8 24 -17 32 -20 11 -4 9 -6 -5 -6 -24 -1 -45 -19 -45 -38 0
-9 7 -7 22 7 26 24 42 21 46 -9 3 -22 4 -22 18 -4 12 16 15 16 25 3 8 -11 12
-12 16 -2 2 6 9 10 14 6 5 -3 5 -13 -1 -25 -8 -14 -7 -19 1 -19 6 0 9 -6 6
-14 -9 -22 4 -28 18 -9 11 15 18 15 55 4 35 -10 40 -14 26 -24 -31 -23 10 -49
57 -36 23 6 27 5 27 -11 0 -17 4 -18 26 -10 16 7 23 7 19 0 -4 -6 9 -10 32
-10 35 -1 84 -24 66 -32 -8 -3 -333 -3 -380 1 -12 1 -25 6 -28 11 -3 6 -16 10
-28 11 -20 1 -20 2 3 9 24 8 23 8 -8 9 -22 1 -31 -3 -26 -10 4 -7 1 -10 -7 -7
-8 3 -13 12 -11 20 1 9 -7 18 -18 21 -17 4 -20 0 -20 -28 0 -29 4 -34 28 -38
l27 -4 -27 -2 -28 -1 0 -260 0 -260 355 0 355 0 0 415 0 415 -50 0 c-42 0 -49
-2 -44 -17 5 -17 5 -17 -6 0 -9 15 -28 17 -138 17 -89 0 -132 -4 -141 -12 -11
-10 -13 -10 -7 0 5 9 -5 12 -37 12 -32 0 -47 -5 -51 -16 -10 -25 4 -37 20 -17
12 17 13 17 9 -4 -2 -13 0 -23 6 -23 5 0 9 -11 9 -25 0 -34 47 -47 67 -19 55
78 98 86 139 25 17 -26 35 -41 52 -44 26 -4 26 -4 -3 -6 -22 -1 -35 -11 -50
-34 -33 -52 -112 -44 -130 13 -3 11 -13 20 -22 20 -9 0 -13 -6 -9 -15 4 -13 2
-14 -14 -5 -11 6 -20 8 -20 5 0 -3 -15 5 -33 19 -19 15 -38 26 -43 26 -5 0
-15 9 -22 20 -7 12 -23 20 -38 20 -14 0 -23 4 -19 9 3 5 1 12 -5 16 -5 3 -10
1 -10 -6 0 -7 -3 -9 -6 -6 -4 4 -1 13 6 22 7 8 11 15 9 16 -38 7 -129 8 -129
1z m479 -484 c28 -28 49 -53 47 -55 -5 -5 -126 113 -126 123 0 9 17 -6 79 -68z
m195 -19 c-3 -5 -10 -7 -15 -3 -5 3 -7 10 -3 15 3 5 10 7 15 3 5 -3 7 -10 3
-15z m-457 -205 c-7 -7 -67 69 -67 84 0 7 16 -8 36 -33 19 -26 33 -49 31 -51z"/>
<path d="M1130 1088 c0 -79 1 -84 22 -85 12 -1 30 8 40 20 10 12 23 28 29 35
6 8 20 12 30 9 16 -4 18 0 13 28 -3 24 -1 34 11 38 8 4 15 12 15 19 0 9 -23
14 -80 16 l-80 4 0 -84z"/>
<path d="M1317 1151 c6 -25 21 -27 29 -6 9 21 21 19 27 -6 3 -12 10 -18 16
-15 5 4 11 -4 13 -16 4 -32 -14 -88 -29 -88 -18 0 -16 29 2 36 25 10 17 27
-10 22 -22 -5 -25 -2 -19 14 5 17 4 18 -15 6 -12 -7 -19 -19 -16 -26 3 -8 5
-19 5 -25 0 -7 4 -6 10 3 8 13 10 13 10 -2 0 -9 -7 -23 -15 -32 -13 -13 -13
-15 3 -19 9 -3 -11 -5 -44 -6 -45 -1 -63 -5 -68 -16 -3 -8 -15 -15 -27 -15
-15 0 -19 5 -15 15 4 11 -1 15 -19 15 -23 0 -25 -4 -25 -42 0 -59 65 -139 158
-195 44 -26 54 -37 25 -26 -29 10 -85 54 -135 106 l-48 49 0 -271 0 -271 400
0 400 0 0 415 0 415 -51 0 c-27 0 -48 -4 -45 -9 3 -5 15 -7 26 -4 15 4 20 0
20 -16 0 -11 -5 -21 -11 -21 -19 0 -59 -49 -59 -71 0 -17 -2 -18 -14 -7 -18
19 -31 78 -17 78 6 0 11 5 11 10 0 6 -10 8 -24 4 -17 -4 -30 0 -44 14 -18 18
-35 20 -215 21 -193 2 -195 2 -190 -18z m303 -20 c0 -15 32 -22 46 -10 18 15
69 7 69 -11 0 -8 -6 -15 -12 -15 -22 0 -19 -20 5 -30 20 -9 31 -35 15 -35 -5
0 -19 -3 -32 -7 -17 -4 -22 -3 -17 5 4 7 2 12 -3 12 -6 0 -11 -4 -11 -9 0 -4
-12 -20 -26 -34 -28 -29 -29 -27 36 -46 l35 -11 -40 6 c-22 3 -56 15 -75 26
-31 18 -35 18 -46 4 -6 -9 -21 -16 -33 -16 -16 0 -21 -6 -21 -25 0 -23 -3 -25
-47 -24 -45 1 -46 2 -21 12 23 9 44 34 36 43 -7 7 -57 -9 -52 -17 3 -5 -6 -9
-20 -9 -14 0 -29 -6 -33 -14 -6 -11 -20 -13 -63 -7 l-55 7 40 13 c22 8 45 21
52 30 6 9 15 13 18 9 8 -8 61 17 81 37 7 7 24 10 39 8 20 -4 24 -2 19 11 -4 9
-2 16 4 14 5 -2 26 18 46 45 33 42 66 62 66 38z m-117 -68 c-7 -2 -19 -2 -25
0 -7 3 -2 5 12 5 14 0 19 -2 13 -5z m-113 -63 c-8 -5 -19 -10 -25 -10 -5 0 -3
5 5 10 8 5 20 10 25 10 6 0 3 -5 -5 -10z m350 -200 c-7 -14 -17 -19 -29 -15
-16 5 -128 -21 -176 -41 -14 -5 -11 1 12 24 29 30 37 32 97 32 37 0 66 4 66
10 0 6 9 10 20 10 18 0 19 -3 10 -20z m63 13 c-7 -2 -19 -2 -25 0 -7 3 -2 5
12 5 14 0 19 -2 13 -5z m41 -23 c-9 -16 -21 -30 -28 -30 -7 0 -21 -9 -31 -20
-10 -11 -42 -28 -71 -37 -59 -18 -67 -30 -10 -15 43 12 47 6 9 -10 -32 -13
-95 -19 -88 -8 3 4 -28 8 -68 8 -49 1 -66 -2 -52 -8 16 -7 17 -9 3 -9 -9 -1
-19 3 -23 8 -3 5 -22 7 -42 4 -26 -4 -34 -3 -29 5 4 7 14 12 22 12 8 0 14 5
14 10 0 13 -33 12 -105 -6 -57 -13 -58 -14 -15 -10 31 2 50 -2 60 -12 12 -13
10 -14 -14 -10 -30 6 -106 -19 -106 -34 0 -5 5 -6 10 -3 12 7 12 3 4 -19 -3
-9 -10 -16 -15 -16 -4 0 -6 6 -3 14 4 11 -3 13 -38 10 l-43 -5 28 16 c41 24
67 48 67 62 0 10 57 33 85 33 6 0 33 11 60 25 28 13 58 25 67 25 9 0 24 7 33
16 30 31 25 7 -7 -27 -17 -19 -28 -28 -24 -21 4 6 3 12 -3 12 -17 0 -41 -12
-41 -20 0 -10 155 -4 200 8 46 12 100 40 100 52 0 6 7 10 16 10 15 0 15 -2 0
-25 -24 -36 -5 -31 34 10 43 45 64 47 44 5z m-347 -6 c-3 -3 -12 -4 -19 -1 -8
3 -5 6 6 6 11 1 17 -2 13 -5z m-49 -11 c-10 -2 -18 -9 -18 -14 0 -12 -47 -12
-55 0 -5 9 27 18 70 18 16 1 17 0 3 -4z m257 -3 c-3 -5 -11 -10 -16 -10 -6 0
-7 5 -4 10 3 6 11 10 16 10 6 0 7 -4 4 -10z m105 -102 c0 -15 -9 -18 -56 -18
-60 0 -65 14 -9 24 20 4 39 14 42 22 5 13 7 13 14 2 5 -7 9 -21 9 -30z m-330
-12 c0 -2 -9 -6 -20 -9 -11 -3 -20 -1 -20 4 0 5 9 9 20 9 11 0 20 -2 20 -4z"/>
<path d="M1600 1078 c0 -7 -11 -24 -25 -38 l-25 -27 24 -11 c21 -9 25 -8 29 9
3 10 12 19 21 19 20 0 21 14 1 33 -8 8 -11 17 -8 21 4 3 1 6 -5 6 -7 0 -12 -5
-12 -12z"/>
</g>
</svg>
